<?xml version="1.0"?>
<svg xmlns="http://www.w3.org/2000/svg" id="Capa_1" enable-background="new 0 0 512 512" height="512px" viewBox="0 0 512 512" width="512px" class=""><g><path d="m493.867 339.422c-13.288 17.661-40.72 43.1-83.175 31.243-62.694-17.509-32.759-181.305-116.917-189.777-84.157-8.472-125.388 116.352-152.5 106.185s-4.519-58.176 13.555-128.778-.565-110.139-58.176-106.185c-57.609 3.954-105.054 98.843-84.156 120.306s78.349-9.651 78.349-9.651 1.873 14.433-4.769 41.58c-7.021 28.701-47.676 82.639-31.784 130.315s76.282 52.762 76.282 52.762l.239.003v44.323c0 15.691 12.721 28.412 28.412 28.412 15.691 0 28.412-12.72 28.412-28.412v-43.588l108.43 1.402v42.187c0 15.691 12.72 28.412 28.412 28.412 15.692 0 28.412-12.72 28.412-28.412v-40.643c22.975 18.666 49.397 31.82 77.567 30.393 63.569-3.219 73.544-51.147 74.023-78.455.101-5.715-7.18-8.189-10.616-3.622z" fill="#98db7c" data-original="#98DB7C" class="" style="fill:#014B0D" data-old_color="#98db7c"/><g fill="#82d361"><path d="m130.717 158.295c-18.074 70.602-40.667 118.611-13.556 128.778 4.814 1.805 10.076-.66 15.942-5.865-13.126-17.188 6.007-61.5 21.728-122.913 18.074-70.602-.565-110.138-58.176-106.185-1.511.104-3.013.284-4.509.51 42.056 5.803 54.407 43.813 38.571 105.675z" data-original="#82D361" style="fill:#E1A954" class="active-path" data-old_color="#82D361"/><path d="m386.577 370.665c12.306 3.437 23.342 3.726 33.145 1.993-2.934-.485-5.938-1.129-9.031-1.993-62.694-17.509-32.759-181.305-116.917-189.777-7.019-.707-13.733-.468-20.172.524 79.283 13.141 51.282 172.024 112.975 189.253z" data-original="#82D361" style="fill:#E1A954" class="active-path" data-old_color="#82D361"/><path d="m187.64 388.471c-13.268-.171-24.115 10.536-24.115 23.805v19.472c0 11.38-6.693 21.192-16.355 25.728 3.661 1.719 7.745 2.684 12.057 2.684 15.691 0 28.412-12.72 28.412-28.412v-43.277z" data-original="#82D361" style="fill:#E1A954" class="active-path" data-old_color="#82D361"/><path d="m493.867 339.422c-3.677 4.887-8.442 10.367-14.303 15.491-3.118 25.999-16.615 60.034-64.948 65.881 5.211.718 10.496.976 15.844.705 63.569-3.219 73.544-51.147 74.023-78.455.101-5.715-7.18-8.189-10.616-3.622z" data-original="#82D361" style="fill:#E1A954" class="active-path" data-old_color="#82D361"/><path d="m352.894 391.105c-13.318 0-24.115 10.797-24.115 24.115v16.528c0 11.38-6.693 21.192-16.355 25.728 3.558 1.671 7.517 2.629 11.696 2.682 15.825.198 28.773-13.191 28.773-29.017v-40.036z" data-original="#82D361" style="fill:#E1A954" class="active-path" data-old_color="#82D361"/></g><path d="m502.963 330.277c-5.52-1.897-11.59-.038-15.102 4.628-14.041 18.664-38.476 38.769-75.147 28.523-13.043-3.643-22.453-15.428-30.512-38.213-1.383-3.913-5.678-5.966-9.591-4.579-3.913 1.384-5.963 5.678-4.579 9.591 6.12 17.305 16.992 41.074 40.638 47.678 43.943 12.269 73.143-11.838 88.102-30.025-.725 11.709-3.528 26.669-11.9 39.266-10.987 16.53-29.422 25.563-54.792 26.848-23.169 1.169-47.546-8.489-72.447-28.72-4.821-3.917-12.254-.358-12.254 5.833v40.642c0 11.522-9.375 20.897-20.897 20.897s-20.897-9.375-20.897-20.897v-42.186c0-4.113-3.306-7.462-7.418-7.514l-108.429-1.402c-4.129-.082-7.613 3.401-7.613 7.514v43.589c0 11.522-9.375 20.897-20.897 20.897s-20.897-9.375-20.897-20.897v-44.322c0-4.084-3.259-7.417-7.335-7.513-2.72-.276-30.753-3.509-51.269-20.916-3.165-2.685-7.907-2.295-10.593.868-2.685 3.166-2.296 7.908.869 10.593 18.708 15.872 42.04 21.603 53.298 23.54v37.751c0 19.811 16.117 35.928 35.927 35.928s35.928-16.117 35.928-35.928v-35.975l93.399 1.208v34.768c0 19.811 16.117 35.928 35.928 35.928s35.928-16.117 35.928-35.928v-25.615c23.758 16.353 47.401 24.048 70.43 22.871 30.391-1.538 52.781-12.823 66.55-33.539 11.622-17.487 14.358-38.087 14.608-52.29.101-5.825-3.531-11.009-9.036-12.902z" data-original="#000000" class="" data-old_color="#000000" style="fill:#000000"/><path d="m61.424 332.283c-10.341-31.022 5.974-66.064 19.084-94.222 5.72-12.286 10.66-22.896 12.87-31.93 6.895-28.185 5.006-43.686 4.922-44.332-.666-5.133-6.467-8.117-11.032-5.641-13.607 7.369-55.564 25.214-69.386 11.016-3.894-3.998-4.613-16.43 2.557-35.188 17.111-44.765 52.305-70.7 76.731-72.377 20.612-1.415 35.75 3.106 44.995 13.44 11.513 12.868 14.649 35.918 9.07 66.656-.741 4.085 1.968 7.996 6.052 8.738 4.084.74 7.995-1.969 8.737-6.052 6.53-35.976 2.272-62.678-12.658-79.363-12.496-13.967-31.745-20.158-57.226-18.413-18.883 1.296-38.079 11.313-55.512 28.968-14.47 14.653-26.946 33.984-34.228 53.035-8.776 22.958-8.515 41.561.714 51.04 18.703 19.205 56.925 5.794 76.214-2.855-.445 6.527-1.636 15.849-4.549 27.756-1.859 7.6-6.51 17.59-11.896 29.158-13.483 28.96-31.95 68.623-19.717 105.32.768 2.305 1.653 4.583 2.63 6.772 1.758 3.936 6.629 5.597 10.43 3.551 3.419-1.84 4.877-6.137 3.295-9.679-.778-1.741-1.484-3.558-2.097-5.398z" data-original="#000000" class="" data-old_color="#000000" style="fill:#000000"/><path d="m153.46 274.47c-5.11 4.827-8.28 6.042-9.546 5.566-4.647-1.743-8.762-5.419-7.424-20.394 1.229-13.756 6.87-33.141 13.402-55.586 2.94-10.102 5.98-20.549 9.044-31.856 1.086-4.006-1.282-8.134-5.288-9.22-4.003-1.084-8.133 1.282-9.219 5.288-3.027 11.172-6.048 21.551-8.969 31.588-6.751 23.2-12.582 43.235-13.941 58.448-.628 7.033-2.54 28.434 17.117 35.805 11.395 4.276 21.744-5.5 25.145-8.713 6.846-6.466 14.069-15.699 22.431-26.389 24.911-31.842 59.018-75.464 106.81-70.643 17.989 1.811 31.186 11.722 41.532 31.19 9.715 18.283 15.523 42.447 21.139 65.814 1.214 5.05 2.47 10.274 3.74 15.328 1.025 4.081 5.359 6.559 9.398 5.381 3.826-1.116 6.149-5.181 5.178-9.045-1.251-4.979-2.497-10.163-3.702-15.177-11.639-48.428-24.832-103.317-75.78-108.446-56.02-5.636-93.088 41.739-120.153 76.336-7.988 10.214-14.889 19.034-20.914 24.725z" data-original="#000000" class="" data-old_color="#000000" style="fill:#000000"/><path d="m70.633 112.05c0 9.557 5.678 16.763 13.206 16.763s13.206-7.206 13.206-16.763-5.678-16.763-13.206-16.763c-7.529 0-13.206 7.206-13.206 16.763z" data-original="#000000" class="" data-old_color="#000000" style="fill:#000000"/></g> </svg>
