<svg height="512" viewBox="0 0 60 60" width="512" xmlns="http://www.w3.org/2000/svg"><g id="Page-1" fill="none" fill-rule="evenodd"><g id="016---Volcano" fill-rule="nonzero" transform="translate(0 -1)"><g id="Color" transform="translate(1 2)"><path id="Shape" d="m58 58h-58s8.66-7.18 13-15c.9236575-1.6960486 1.6805384-3.4777328 2.26-5.32-.26 3.32 1.07 5.65 2.74 6.32 5 2 8-4 8-10s5-7 7-4 3 21 12 19c1.1401088-.240005 2.2341189-.6620767 3.24-1.25 2.9128407 3.7254324 6.1816053 7.158305 9.76 10.25z" fill="#a0522d"/><path id="Shape" d="m30 30c2 3 3 21 12 19l.22-.06c-6.46-1.87-7.45-16.28-9.22-18.94-.9364736-1.4972293-2.8502167-2.048939-4.44-1.28.5838117.2931981 1.0803771.7345895 1.44 1.28z" fill="#783e22"/><path id="Shape" d="m48.24 47.75c-.7026604.4174872-1.4508822.7530127-2.23 1 2.7211036 3.3396716 5.7292448 6.4348113 8.99 9.25h3c-3.5783947-3.091695-6.8471593-6.5245676-9.76-10.25z" fill="#783e22"/><path id="Shape" d="m48.24 47.75c-1.0058811.5879233-2.0998912 1.009995-3.24 1.25-9 2-10-16-12-19s-7-2-7 4-3 12-8 10c-1.67-.67-3-3-2.74-6.32 1.6932381-5.7662742 2.614597-11.7315686 2.74-17.74.0324466-1.0810694.9184439-1.9404868 2-1.94h3c.004941-.0365002.004941-.0734998 0-.11.0584638-1.0613921.9370001-1.8916089 2-1.89h8.1c1.0629999-.0016089 1.9415362.8286079 2 1.89-.004941.0365002-.004941.0734998 0 .11h3c1.0778004-.0006603 1.9622772.8528598 2 1.93.18 5.06 1 15.81 5 23.07.931212 1.6567013 1.9805962 3.2441455 3.14 4.75z" fill="#ff5722"/><g fill="#d84315"><path id="Shape" d="m23 34c0 4.49-1.68 9-4.62 10.12 4.77 1.55 7.62-4.27 7.62-10.12 0-2.87 1.15-4.59 2.56-5.28-2.3-1.14-5.56.44-5.56 5.28z"/><path id="Shape" d="m33.05 16-3-.0000023c1.0629999-.0016066 1.9415362.8286102 2 1.8900023-.004941.0365002-.004941.0734998 0 .11h3c-.004941-.0365002-.004941-.0734998 0-.11-.0584638-1.0613921-.9370001-1.8916089-2-1.89z"/><path id="Shape" d="m45.08 43c-4-7.26-4.86-18-5-23.07-.0377228-1.0771402-.9221996-1.9306603-2-1.93l-3-.0000004c1.0778004-.0006599 1.9622772.8528602 2 1.9300004.18 5.06 1 15.81 5 23.07.9376426 1.6573214 1.9937214 3.2447817 3.16 4.75-.9344187.5453734-1.9458142.9465603-3 1.19.8992613.2588011 1.8503414.2794768 2.76.06 1.1401088-.240005 2.2341189-.6620767 3.24-1.25-1.1662786-1.5052183-2.2223574-3.0926786-3.16-4.75z"/></g><path id="Shape" d="m46 9c0 1.6568542-1.3431458 3-3 3h-11v4h-6v-4h-11c-1.6568542 0-3-1.3431458-3-3 0-1.65685425 1.3431458-3 3-3 .3419492.00367035.6805332.0680013 1 .19 0-.06 0-.13 0-.19.0036547-1.32175195.8719313-2.48537967 2.1379449-2.86518375s2.631434.11371453 3.3620551 1.21518375c.7781855-1.17271725 2.2669939-1.64680707 3.58-1.14.378554-1.86425918 2.0176947-3.20401005 3.92-3.20401005s3.541446 1.33975087 3.92 3.20401005c1.3130061-.50680707 2.8018145-.03271725 3.58 1.14.7306211-1.10146922 2.0960415-1.59498783 3.3620551-1.21518375s2.1342902 1.5434318 2.1379449 2.86518375v.19c.3194668-.1219987.6580508-.18632965 1-.19 1.6568542 0 3 1.34314575 3 3z" fill="#7f8e94"/><path id="Shape" d="m29.92 3.21c1.3130061-.50680707 2.8018145-.03271725 3.58 1.14.3666181-.53154189.8915024-.93395318 1.5-1.15-.3184723-.12667127-.6573059-.194438-1-.2-.3698675.00282336-.736024.07402045-1.08.21-.3760689-1.86664039-2.0158535-3.20942324-3.92-3.21-.5147975.00104506-1.0244004.10296565-1.5.3 1.2435714.50286702 2.1522947 1.59558798 2.42 2.91z" fill="#545c60"/><path id="Rectangle-path" d="m29 12h3v4h-3z" fill="#545c60"/><path id="Shape" d="m43 6c-.3419492.00367035-.6805332.0680013-1 .19 0-.06 0-.13 0-.19 0-1.65685425-1.3431458-3-3-3-.528668.00258765-1.0468569.14768052-1.5.42.9226336.53265689 1.4935696 1.51466682 1.5 2.58v.19c.3194668-.1219987.6580508-.18632965 1-.19 1.6568542.00000003 2.9999999 1.34314578 2.9999999 3 0 1.6568542-1.3431457 3-2.9999999 3h3c1.6568542 0 3-1.3431458 3-3 0-1.65685425-1.3431458-3-3-3z" fill="#545c60"/></g><g id="Outline" fill="#000"><path id="Shape" d="m26 17c-1.2682549.0035644-2.3972517.8042713-2.82 2h-2.18c-1.6223341-.0007302-2.9513301 1.288396-3 2.91-.16 5.49-1 15.72-4.83 22.6-4.24 7.56-12.72 14.65-12.81 14.72-.32398738.269768-.44398342.7137534-.3 1.11.1431502.3959474.51896993.6598209.94.66h58c.4210301-.0001791.7968498-.2640526.94-.66.1439834-.3962466.0239874-.840232-.3-1.11-.08-.07-8.48-7.15-12.69-14.72-3.82-6.88-4.72-17.12-4.95-22.61-.0539522-1.6176755-1.3814253-2.9008994-3-2.9h-2.13c-.4227483-1.1957287-1.5517451-1.9964356-2.82-2v-2h9.95c1.4290624-.0232222 2.7371815-.8070762 3.4316017-2.0562916.6944201-1.2492155.6696422-2.7740069-.065-4.00000007-.7346423-1.22599318-2.0675393-1.96693061-3.4966017-1.94370833-.340334-1.31243875-1.3223406-2.36312987-2.6088124-2.7912806-1.2864718-.42815074-2.7022544-.17546795-3.7611876.6712806-.8163803-.66488531-1.8619868-.98108247-2.91-.88-.7911298-1.83129872-2.5951212-3.01709809-4.59-3.01709809s-3.7988702 1.18579937-4.59 3.01709809c-1.0453043-.10666382-2.0906031.20225612-2.91.86-1.0617076-.84659451-2.4804136-1.09673445-3.7676352-.66429266-1.2872216.43244178-2.2671441 1.48840043-2.6023648 2.80429266-1.4290624-.02322226-2.7619594.71771517-3.4966016 1.94370835-.7346423 1.22599315-.7594201 2.75078455-.065 3.99999995.6944201 1.2492155 2.0025392 2.0330694 3.4316016 2.0562917h10zm30.38 42h-13c-2.0524264-1.5981955-3.5781913-3.7753716-4.38-6.25-.0875301-.3465476-.3532921-.6200741-.6971762-.7175446-.3438841-.0974706-.713646-.0040771-.97.245-.256354.249077-.3603539.615997-.2728238.9625446.6497706 2.1538219 1.7934632 4.126178 3.34 5.76h-11.21c.52-3 1.81-10.7 1.81-14 0-.5522847-.4477153-1-1-1s-1 .4477153-1 1c0 3.24-1.38 11.39-1.84 14h-12.92c1.7082019-2.0385289 3.2529902-4.2085887 4.62-6.49.2245083-.3087061.2536931-.7182934.0752238-1.0557132-.1784692-.3374198-.5334581-.5438087-.9149856-.5319684-.3815274.0118404-.7230353.2398445-.8802382.5876816-1.5958719 2.6804239-3.4622926 5.1902068-5.57 7.49h-7.93c2.86-2.63 8.1-7.87 11.23-13.51.33-.58.62-1.19.9-1.81.4647712 1.4311453 1.4995608 2.6070426 2.86 3.25 1.6948904.7571528 3.6603782.5870625 5.2-.45 2.53-1.72 4.17-5.83 4.17-10.48 0-2.39.88-4.09 2.37-4.54 1.0720903-.3041775 2.2157422.1410298 2.8 1.09.6359358 1.4887009 1.1119396 3.0407412 1.42 4.63 1.5 6.06 3.71 15 10 15 .54804-.0044262 1.0941995-.0647383 1.63-.18.9614588-.2272744 1.894073-.5627472 2.78-1 2.2530168 2.850429 4.7201731 5.5248532 7.38 8zm-21.38-39.06c.1473998 2.7726714.4814901 5.5322572 1 8.26.0964736.4731232.5172392.8097357 1 .8h.2c.267885-.048025.5046241-.2031601.6555889-.4296074.1509649-.2264472.203113-.504643.1444111-.7703926-.4225859-2.2477255-.7130839-4.5182844-.87-6.8h1.94c.5522847 0 1 .4477153 1 1 .2 5.67 1.14 16.27 5.17 23.52.7620012 1.3519831 1.6034771 2.6576064 2.52 3.91-.6290591.2675217-1.281951.4751079-1.95.62-5.21 1.16-7.35-5.64-9.25-13.32-.3213555-1.8201455-.8934667-3.5869596-1.7-5.25-1.0642485-1.6679539-3.0966305-2.4402591-5-1.9-1.86.52-3.86 2.51-3.86 6.42s-1.32 7.49-3.29 8.82c-.9901829.6698515-2.261132.7649824-3.34.25-1.17-.47-2.33-2.31-2.11-5.25 1.6859821-5.7952175 2.6071203-11.7859777 2.74-17.82 0-.5522847.4477153-1 1-1h1.93c-.1767455 2.2829041-.487279 4.553472-.93 6.8-.1104569.5522847.2477153 1.089543.8 1.2.5522847.1104569 1.089543-.2477153 1.2-.8.5185099-2.7277428.8526002-5.4873286 1-8.26.0317798-.5287239.4703227-.9409542 1-.94h8.1c.4907358.0485631.8728091.4476174.9.94zm-7-6.94c0-2.209139-1.790861-4-4-4-.5522847 0-1 .44771525-1 1 0 .5522847.4477153 1 1 1 1.1045695 0 2 .8954305 2 2h-10c-1.1045695 0-2-.8954305-2-2 .0046667-.6473418.3223681-1.25238872.8526116-1.62375777.5302435-.37136904 1.2074414-.46312418 1.8173884-.24624223.3094036.11041397.6533033.06181945.92-.13.2584142-.18883138.4108303-.48994607.41-.81.0077425-.0630967.0077425-.1269033 0-.19.0002207-.88321649.5797517-1.66171749 1.4257831-1.91529639s1.7582271.07781057 2.2442169.81529639c.1857617.27642946.4969525.44223661.83.44223661s.6442383-.16580715.83-.44223661c.5191525-.78340363 1.5137202-1.09966785 2.39-.76.2664257.12330119.5735743.12330119.84 0 .2588452-.14177854.4418435-.39065622.5-.68.2839155-1.39819439 1.513271-2.40300754 2.94-2.40300754s2.6560845 1.00481315 2.94 2.40300754c.0581565.28934378.2411548.53822146.5.68.2664257.12330119.5735743.12330119.84 0 .8762798-.33966785 1.8708475-.02340363 2.39.76.1857617.27642946.4969525.44223661.83.44223661s.6442383-.16580715.83-.44223661c.3699225-.56172033.9974137-.89988925 1.67-.9 1.1045695 0 2 .8954305 2 2-.0049532.07992333-.0049532.16007667 0 .24.0005385.32722364.1611378.63348272.43.82.2684324.18844921.6122104.23328982.92.12.5993248-.20640809 1.2610157-.11648986 1.7835259.24236618.5225101.35885604.8439734.94416062.8664741 1.57763382 0 1.1045695-.8954305 2-2 2h-10c0-1.1045695.8954305-2 2-2 .5522847 0 1-.4477153 1-1 0-.55228475-.4477153-1-1-1-2.209139 0-4 1.790861-4 4v4h-4z"/></g></g></g></svg>